<svg version="1.1" id="Layer_1" xmlns="http://www.w3.org/2000/svg" xmlns:xlink="http://www.w3.org/1999/xlink" x="0px" y="0px"
	 width="100%" viewBox="0 0 399 509" enable-background="new 0 0 399 509" xml:space="preserve">
<path fill="#ECFDF5" opacity="1.000000" stroke="none" 
	d="
M0.999995,499.000000 
	C1.000000,335.976685 1.000000,172.953354 1.319707,9.322584 
	C6.759610,6.143429 11.879805,3.571714 17.000000,1.000000 
	C135.356659,1.000000 253.713318,1.000000 372.744080,1.274201 
	C382.278809,6.365602 391.139404,11.182803 400.000000,16.000002 
	C400.000000,174.356659 400.000000,332.713318 399.686279,491.674683 
	C393.159515,495.732605 387.044922,499.380829 380.703583,502.579651 
	C375.270538,505.320343 369.577850,507.546387 364.000000,510.000000 
	C251.643341,510.000000 139.286682,510.000000 26.373535,509.840027 
	C25.544697,509.786682 25.272346,509.893341 24.999998,510.000000 
	C24.555555,510.000000 24.111113,510.000000 23.268330,509.647217 
	C15.579991,505.862946 8.289990,502.431488 0.999995,499.000000 
M243.998093,92.051140 
	C244.003876,86.394974 244.102707,80.737015 243.994354,75.083038 
	C243.817291,65.843826 237.830444,58.810646 228.706848,58.659187 
	C206.258102,58.286518 183.795044,58.286770 161.346130,58.652050 
	C152.181595,58.801178 146.199554,65.787529 146.006088,75.020462 
	C145.880692,81.004967 145.922348,86.992989 145.073257,92.989662 
	C143.449768,93.268517 141.785477,93.403053 140.209091,93.848564 
	C124.588837,98.263100 111.389977,106.651787 100.761795,118.833336 
	C88.105850,133.339020 80.998093,150.173874 80.990746,169.651703 
	C80.967171,232.121719 80.953743,294.591797 81.061722,357.061646 
	C81.069374,361.490753 81.753601,365.992737 82.705063,370.333282 
	C86.668098,388.412415 96.344254,403.188721 110.481598,414.763977 
	C124.873405,426.547516 141.497787,433.088715 160.416992,433.032776 
	C184.905029,432.960358 209.393448,433.018433 233.881638,432.984039 
	C235.864044,432.981262 237.866928,432.832489 239.825027,432.526123 
	C260.409149,429.305969 277.368347,419.435822 290.705353,403.659180 
	C301.710358,390.641113 308.789001,375.488129 308.874817,358.270477 
	C309.194550,294.136200 309.007629,229.999390 308.980743,165.863541 
	C308.979919,163.885956 308.773712,161.887741 308.451080,159.934174 
	C304.878143,138.298660 294.407440,120.735260 276.939758,107.500343 
	C267.179962,100.105545 256.437683,94.672256 243.998093,92.051140 
M351.543884,163.040253 
	C353.811493,160.918152 356.079102,158.796036 358.249664,156.764755 
	C352.367950,151.031128 347.067413,145.864044 342.454254,141.367020 
	C337.414429,146.324509 332.048553,151.602737 327.740356,155.840591 
	C332.553314,160.822037 337.687561,166.135986 343.279968,171.924118 
	C345.631744,169.384048 348.336792,166.462402 351.543884,163.040253 
M41.467613,192.016098 
	C43.592140,194.047928 45.716671,196.079742 48.625809,198.861938 
	C52.196590,194.934052 55.537975,191.461334 58.591187,187.751450 
	C59.317440,186.868988 59.737827,184.640549 59.177246,183.972717 
	C55.801056,179.950577 52.098335,176.202515 47.819714,171.630539 
	C44.041832,175.800842 41.293541,179.166046 38.186554,182.158875 
	C35.724735,184.530228 35.356064,186.448883 38.125355,188.699371 
	C39.154160,189.535416 40.022472,190.568954 41.467613,192.016098 
z"/>
<path fill="#F9F9F9" opacity="1.000000" stroke="none" 
	d="
M364.468689,510.000000 
	C369.577850,507.546387 375.270538,505.320343 380.703583,502.579651 
	C387.044922,499.380829 393.159515,495.732605 399.686279,492.139709 
	C400.000000,497.950958 400.000000,503.901917 400.000000,510.000000 
	C388.312775,510.000000 376.625061,510.000000 364.468689,510.000000 
z"/>
<path fill="#F9F9F9" opacity="1.000000" stroke="none" 
	d="
M400.000000,15.527338 
	C391.139404,11.182803 382.278809,6.365602 373.209106,1.274201 
	C381.903412,1.000000 390.806854,1.000000 400.000000,1.000000 
	C400.000000,5.680956 400.000000,10.367815 400.000000,15.527338 
z"/>
<path fill="#F8F9F9" opacity="1.000000" stroke="none" 
	d="
M0.999995,499.482971 
	C8.289990,502.431488 15.579991,505.862946 22.934996,509.647217 
	C15.771795,510.000000 8.543591,510.000000 1.000000,510.000000 
	C1.000000,506.661926 1.000000,503.313904 0.999995,499.482971 
z"/>
<path fill="#F9F9F9" opacity="1.000000" stroke="none" 
	d="
M16.528801,1.000000 
	C11.879805,3.571714 6.759610,6.143429 1.319707,8.857572 
	C1.000000,6.383534 1.000000,3.767068 1.000000,1.000000 
	C6.018550,1.000000 11.038077,1.000000 16.528801,1.000000 
z"/>
<path fill="#F8F9F9" opacity="1.000000" stroke="none" 
	d="
M25.249998,510.000000 
	C25.272346,509.893341 25.544697,509.786682 25.908524,509.840027 
	C26.000000,510.000000 25.500000,510.000000 25.249998,510.000000 
z"/>
<path fill="#C8E9DC" opacity="1.000000" stroke="none" 
	d="
M244.099808,92.981033 
	C256.437683,94.672256 267.179962,100.105545 276.939758,107.500343 
	C294.407440,120.735260 304.878143,138.298660 308.451080,159.934174 
	C308.773712,161.887741 308.979919,163.885956 308.980743,165.863541 
	C309.007629,229.999390 309.194550,294.136200 308.874817,358.270477 
	C308.789001,375.488129 301.710358,390.641113 290.705353,403.659180 
	C277.368347,419.435822 260.409149,429.305969 239.825027,432.526123 
	C237.866928,432.832489 235.864044,432.981262 233.881638,432.984039 
	C209.393448,433.018433 184.905029,432.960358 160.416992,433.032776 
	C141.497787,433.088715 124.873405,426.547516 110.481598,414.763977 
	C96.344254,403.188721 86.668098,388.412415 82.705063,370.333282 
	C81.753601,365.992737 81.069374,361.490753 81.061722,357.061646 
	C80.953743,294.591797 80.967171,232.121719 80.990746,169.651703 
	C80.998093,150.173874 88.105850,133.339020 100.761795,118.833336 
	C111.389977,106.651787 124.588837,98.263100 140.209091,93.848564 
	C141.785477,93.403053 143.449768,93.268517 145.613312,93.330017 
	C147.066223,99.859436 151.951324,103.086472 155.661407,107.056267 
	C154.523224,107.458931 153.772247,107.833099 152.980789,107.965622 
	C119.851639,113.512733 97.069801,139.930908 97.008690,173.336243 
	C96.899887,232.813553 96.854713,292.291565 97.025917,351.768585 
	C97.127754,387.148285 124.326218,415.694244 159.607437,416.847748 
	C183.238464,417.620361 206.936829,417.629456 230.566666,416.836395 
	C265.190704,415.674316 292.743652,387.432098 292.915955,353.089966 
	C293.220947,292.281342 293.425873,231.465347 292.773865,170.662094 
	C292.501862,145.296890 279.788879,126.173286 257.048279,114.772804 
	C249.348572,110.912743 240.414627,109.514618 232.177063,106.665939 
	C239.099060,104.411011 242.406509,99.408310 244.099808,92.981033 
z"/>
<path fill="#086148" opacity="1.000000" stroke="none" 
	d="
M244.048950,92.516083 
	C242.406509,99.408310 239.099060,104.411011 231.891907,106.912231 
	C228.875916,107.332840 226.277679,107.055527 223.678909,107.050621 
	C204.056564,107.013557 184.434113,107.034729 164.811707,107.024643 
	C161.884354,107.023140 158.957047,106.953300 156.029709,106.915070 
	C151.951324,103.086472 147.066223,99.859436 146.021240,93.324905 
	C145.922348,86.992989 145.880692,81.004967 146.006088,75.020462 
	C146.199554,65.787529 152.181595,58.801178 161.346130,58.652050 
	C183.795044,58.286770 206.258102,58.286518 228.706848,58.659187 
	C237.830444,58.810646 243.817291,65.843826 243.994354,75.083038 
	C244.102707,80.737015 244.003876,86.394974 244.048950,92.516083 
z"/>
<path fill="#3AD49C" opacity="1.000000" stroke="none" 
	d="
M351.292847,163.290512 
	C348.336792,166.462402 345.631744,169.384048 343.279968,171.924118 
	C337.687561,166.135986 332.553314,160.822037 327.740356,155.840591 
	C332.048553,151.602737 337.414429,146.324509 342.454254,141.367020 
	C347.067413,145.864044 352.367950,151.031128 358.249664,156.764755 
	C356.079102,158.796036 353.811493,160.918152 351.292847,163.290512 
z"/>
<path fill="#A9F3D1" opacity="1.000000" stroke="none" 
	d="
M41.215794,191.764267 
	C40.022472,190.568954 39.154160,189.535416 38.125355,188.699371 
	C35.356064,186.448883 35.724735,184.530228 38.186554,182.158875 
	C41.293541,179.166046 44.041832,175.800842 47.819714,171.630539 
	C52.098335,176.202515 55.801056,179.950577 59.177246,183.972717 
	C59.737827,184.640549 59.317440,186.868988 58.591187,187.751450 
	C55.537975,191.461334 52.196590,194.934052 48.625809,198.861938 
	C45.716671,196.079742 43.592140,194.047928 41.215794,191.764267 
z"/>
<path fill="#10B981" opacity="1.000000" stroke="none" 
	d="
M155.661407,107.056274 
	C158.957047,106.953300 161.884354,107.023140 164.811707,107.024643 
	C184.434113,107.034729 204.056564,107.013557 223.678909,107.050621 
	C226.277679,107.055527 228.875916,107.332840 231.759567,107.237717 
	C240.414627,109.514618 249.348572,110.912743 257.048279,114.772804 
	C279.788879,126.173286 292.501862,145.296890 292.773865,170.662094 
	C293.425873,231.465347 293.220947,292.281342 292.915955,353.089966 
	C292.743652,387.432098 265.190704,415.674316 230.566666,416.836395 
	C206.936829,417.629456 183.238464,417.620361 159.607437,416.847748 
	C124.326218,415.694244 97.127754,387.148285 97.025917,351.768585 
	C96.854713,292.291565 96.899887,232.813553 97.008690,173.336243 
	C97.069801,139.930908 119.851639,113.512733 152.980789,107.965622 
	C153.772247,107.833099 154.523224,107.458931 155.661407,107.056274 
M233.408005,276.953094 
	C231.273392,278.170319 229.148102,279.404297 227.002045,280.601044 
	C223.537903,282.532806 220.268707,285.158356 216.553131,286.237518 
	C196.943466,291.932800 177.951523,292.157867 160.679749,278.934052 
	C155.574326,275.025177 150.012070,275.793182 146.508453,280.179474 
	C142.655807,285.002716 142.663605,290.078583 147.848633,294.217010 
	C153.103195,298.410919 158.933319,302.176056 165.048996,304.938934 
	C178.481125,311.007172 192.974991,311.235352 207.218384,309.588745 
	C220.381180,308.066986 232.829559,303.702423 242.635834,293.974854 
	C245.738525,290.897095 247.208221,287.205994 245.279663,283.121826 
	C243.142227,278.595337 239.642014,275.752258 233.408005,276.953094 
M229.774612,248.627197 
	C236.542679,257.089661 248.593521,258.257629 256.179382,251.186310 
	C263.251831,244.593567 263.968658,233.828445 257.831848,226.370255 
	C251.830475,219.076660 240.933975,217.811005 233.108521,223.498566 
	C225.617355,228.943161 224.029892,239.314590 229.774612,248.627197 
M164.823120,226.377274 
	C159.989182,232.489166 159.495331,239.194489 162.775513,246.012512 
	C165.962723,252.637329 171.828888,255.750366 178.960297,255.756424 
	C187.349670,255.763550 194.120270,249.876419 196.061142,241.682419 
	C197.847656,234.139999 194.328186,226.071106 187.997086,222.463638 
	C180.965469,218.457001 171.158997,219.107880 164.823120,226.377274 
z"/>
<path fill="#06503D" opacity="1.000000" stroke="none" 
	d="
M233.774323,276.883362 
	C239.642014,275.752258 243.142227,278.595337 245.279663,283.121826 
	C247.208221,287.205994 245.738525,290.897095 242.635834,293.974854 
	C232.829559,303.702423 220.381180,308.066986 207.218384,309.588745 
	C192.974991,311.235352 178.481125,311.007172 165.048996,304.938934 
	C158.933319,302.176056 153.103195,298.410919 147.848633,294.217010 
	C142.663605,290.078583 142.655807,285.002716 146.508453,280.179474 
	C150.012070,275.793182 155.574326,275.025177 160.679749,278.934052 
	C177.951523,292.157867 196.943466,291.932800 216.553131,286.237518 
	C220.268707,285.158356 223.537903,282.532806 227.002045,280.601044 
	C229.148102,279.404297 231.273392,278.170319 233.774323,276.883362 
z"/>
<path fill="#06503C" opacity="1.000000" stroke="none" 
	d="
M229.565125,248.322327 
	C224.029892,239.314590 225.617355,228.943161 233.108521,223.498566 
	C240.933975,217.811005 251.830475,219.076660 257.831848,226.370255 
	C263.968658,233.828445 263.251831,244.593567 256.179382,251.186310 
	C248.593521,258.257629 236.542679,257.089661 229.565125,248.322327 
z"/>
<path fill="#06503C" opacity="1.000000" stroke="none" 
	d="
M165.020111,226.065872 
	C171.158997,219.107880 180.965469,218.457001 187.997086,222.463638 
	C194.328186,226.071106 197.847656,234.139999 196.061142,241.682419 
	C194.120270,249.876419 187.349670,255.763550 178.960297,255.756424 
	C171.828888,255.750366 165.962723,252.637329 162.775513,246.012512 
	C159.495331,239.194489 159.989182,232.489166 165.020111,226.065872 
z"/>
</svg>